<svg id="Image_not_available" data-name="Image not available" xmlns="http://www.w3.org/2000/svg" width="720" height="405" viewBox="0 0 720 405"><defs><style>.cls-1{fill:#fff;}.cls-2{fill:#64798a;}.cls-3{fill:#d6dce0;fill-rule:evenodd;}</style></defs><g id="Group-2-Copy-3"><rect id="Rectangle-Copy-2" class="cls-1" width="720" height="405"/></g><path id="Imagenotavailable" class="cls-2" d="M176.18,312V281H172v31Zm10.7,0V300.36a14.11,14.11,0,0,1,.62-4.7,4.84,4.84,0,0,1,2-2.48,5.66,5.66,0,0,1,3-.84,3.58,3.58,0,0,1,3.09,1.27,6.31,6.31,0,0,1,.94,3.81h0V312h3.86V299c0-2.31.53-4,1.59-5a5.43,5.43,0,0,1,4-1.57,4.29,4.29,0,0,1,2.32.61,3.23,3.23,0,0,1,1.36,1.62A10.44,10.44,0,0,1,210,298h0V312h3.84V296.59q0-3.85-1.82-5.7a7,7,0,0,0-5.21-1.85,8.2,8.2,0,0,0-7,3.93,5.5,5.5,0,0,0-2.28-2.89,7.46,7.46,0,0,0-4.15-1,8.05,8.05,0,0,0-6.91,3.66h0v-3.15H183V312Zm39.21.51a12.08,12.08,0,0,0,4.25-.74,14.08,14.08,0,0,0,4.13-2.54,8.12,8.12,0,0,0,.77,2.77h4a8.15,8.15,0,0,1-1-2.7,51.85,51.85,0,0,1-.25-6.71v-5.08a21.68,21.68,0,0,0-.19-3.51,6,6,0,0,0-1.2-2.59,6.13,6.13,0,0,0-2.68-1.7,13.86,13.86,0,0,0-4.74-.68,15.39,15.39,0,0,0-5.17.79,7.4,7.4,0,0,0-3.41,2.27A9.15,9.15,0,0,0,219,296h0l3.78.5a5.69,5.69,0,0,1,1.92-3.33,6.84,6.84,0,0,1,4-.94,6.55,6.55,0,0,1,4.4,1.29,4.16,4.16,0,0,1,1.09,3.28v1a35.23,35.23,0,0,1-6.89,1.32,28.53,28.53,0,0,0-3.43.57,9.34,9.34,0,0,0-2.77,1.24,6.27,6.27,0,0,0-2,2.19,6.06,6.06,0,0,0-.76,3,5.9,5.9,0,0,0,2,4.62,8.3,8.3,0,0,0,5.75,1.78Zm.92-3a5.06,5.06,0,0,1-3.42-1,3.2,3.2,0,0,1-1.17-2.54,3.33,3.33,0,0,1,.53-1.81,3.42,3.42,0,0,1,1.53-1.23,13.76,13.76,0,0,1,3.36-.76,29,29,0,0,0,6.31-1.44h0v1.39a9.18,9.18,0,0,1-.62,3.81,6.05,6.05,0,0,1-2.55,2.63,8,8,0,0,1-4,1Zm25.33,11.59a12,12,0,0,0,5.78-1.27,7.86,7.86,0,0,0,3.43-3.46q1.08-2.19,1.08-7.43h0V289.55h-3.56v2.7a8.22,8.22,0,0,0-6.65-3.21,9,9,0,0,0-8.68,5.68,14.71,14.71,0,0,0-1.18,5.93,12.74,12.74,0,0,0,2.57,8A8.64,8.64,0,0,0,252.4,312a8,8,0,0,0,6.31-2.94,24.25,24.25,0,0,1-.28,4.89,5.22,5.22,0,0,1-2,3,7,7,0,0,1-4.14,1.06,6.54,6.54,0,0,1-3.92-1.06,3.5,3.5,0,0,1-1.31-2.5h0l-3.75-.55a6.1,6.1,0,0,0,2.42,5.45,11,11,0,0,0,6.61,1.78Zm.43-12.27a5.72,5.72,0,0,1-4.47-2c-1.18-1.35-1.78-3.51-1.78-6.45q0-4.06,1.81-6.13a5.61,5.61,0,0,1,4.37-2.06,5.76,5.76,0,0,1,4.47,2.09q1.86,2.1,1.86,6.22,0,4.32-1.8,6.34a5.72,5.72,0,0,1-4.46,2ZM278,312.52a10.68,10.68,0,0,0,6.52-1.9,9.67,9.67,0,0,0,3.5-5.36h0l-4-.48a7.34,7.34,0,0,1-2.38,3.51,6,6,0,0,1-3.63,1.1,6.34,6.34,0,0,1-4.76-2,8.56,8.56,0,0,1-2.12-5.67h17v-1q0-5.57-2.89-8.63a9.77,9.77,0,0,0-7.46-3.07,10.06,10.06,0,0,0-7.68,3.13c-2,2.09-3,5-3,8.8s1,6.49,2.93,8.51A10.45,10.45,0,0,0,278,312.52Zm6.07-13.9H271.38a6.89,6.89,0,0,1,2-4.69,6.11,6.11,0,0,1,4.47-1.76,5.93,5.93,0,0,1,4.78,2.2,7.49,7.49,0,0,1,1.46,4.25ZM309,312V299.74c0-2.87.59-4.83,1.79-5.86a6.31,6.31,0,0,1,4.25-1.54,5.2,5.2,0,0,1,2.7.69,3.58,3.58,0,0,1,1.59,1.84,10.23,10.23,0,0,1,.45,3.48h0V312h3.86V298.2a22.9,22.9,0,0,0-.21-3.7,7.51,7.51,0,0,0-1.2-2.82,5.79,5.79,0,0,0-2.59-1.91,9.43,9.43,0,0,0-3.78-.73,8.2,8.2,0,0,0-7.25,3.7h0v-3.19H305.1V312Zm29.81.51a11.26,11.26,0,0,0,5.5-1.38,9.22,9.22,0,0,0,3.84-3.86,14.67,14.67,0,0,0,1.32-6.82c0-3.57-1-6.36-3-8.39a10.33,10.33,0,0,0-7.68-3,10.73,10.73,0,0,0-7.17,2.49q-3.51,3-3.51,9.25c0,3.79,1,6.7,3,8.71a10.25,10.25,0,0,0,7.66,3Zm0-3.13a6.17,6.17,0,0,1-4.81-2.15c-1.27-1.43-1.9-3.58-1.91-6.46s.63-5,1.91-6.45a6.42,6.42,0,0,1,9.58,0c1.28,1.43,1.92,3.54,1.92,6.31,0,2.95-.64,5.15-1.91,6.58a6.12,6.12,0,0,1-4.82,2.18ZM360,312.31a15,15,0,0,0,2.91-.32h0l-.56-3.2a11.91,11.91,0,0,1-1.69.14,2.59,2.59,0,0,1-1.31-.26,1.49,1.49,0,0,1-.66-.7,5.88,5.88,0,0,1-.2-2h0V293.51h3.86V290.7h-3.86v-7.45l-3.83,2.17v5.28h-2.82v2.81h2.82v12.27a12.31,12.31,0,0,0,.47,4.27,3.62,3.62,0,0,0,1.62,1.64A7,7,0,0,0,360,312.31Zm24.85.21a12.08,12.08,0,0,0,4.25-.74,14.08,14.08,0,0,0,4.13-2.54A8.07,8.07,0,0,0,394,312h4a8.15,8.15,0,0,1-1-2.7,53.69,53.69,0,0,1-.25-6.71v-5.08a21.68,21.68,0,0,0-.19-3.51,6,6,0,0,0-1.2-2.59,6.13,6.13,0,0,0-2.68-1.7A13.54,13.54,0,0,0,388,289a15.39,15.39,0,0,0-5.17.79,7.4,7.4,0,0,0-3.41,2.27,9,9,0,0,0-1.69,3.86h0l3.77.5a5.69,5.69,0,0,1,1.92-3.33,6.84,6.84,0,0,1,4-.94,6.5,6.5,0,0,1,4.4,1.29,4.16,4.16,0,0,1,1.09,3.28v1A35.73,35.73,0,0,1,386,299a28.36,28.36,0,0,0-3.44.57,9.34,9.34,0,0,0-2.77,1.24,6.27,6.27,0,0,0-2,2.19,6.06,6.06,0,0,0-.76,3,5.9,5.9,0,0,0,2,4.62,8.3,8.3,0,0,0,5.78,1.86Zm.92-3a5.06,5.06,0,0,1-3.42-1,3.2,3.2,0,0,1-1.17-2.54,3.33,3.33,0,0,1,.53-1.81,3.42,3.42,0,0,1,1.53-1.23,13.76,13.76,0,0,1,3.36-.76,29,29,0,0,0,6.31-1.44h0v1.39a9.18,9.18,0,0,1-.62,3.81,6.05,6.05,0,0,1-2.55,2.63,8,8,0,0,1-4,1Zm27,2.47,8.62-22.46h-4l-5.06,13.7c-.62,1.67-1.09,3.09-1.44,4.28-.44-1.57-.93-3.08-1.46-4.53h0l-4.89-13.45h-4.07L409.11,312Zm18.51.51a12.08,12.08,0,0,0,4.25-.74,14.08,14.08,0,0,0,4.13-2.54,8.12,8.12,0,0,0,.77,2.77h4a8.15,8.15,0,0,1-1-2.7,53.69,53.69,0,0,1-.25-6.71V297.5A20.48,20.48,0,0,0,443,294a6,6,0,0,0-1.2-2.59,6.13,6.13,0,0,0-2.68-1.7,13.86,13.86,0,0,0-4.74-.68,15.39,15.39,0,0,0-5.17.79,7.4,7.4,0,0,0-3.41,2.27,9,9,0,0,0-1.69,3.86h0l3.77.5a5.69,5.69,0,0,1,1.92-3.33,6.84,6.84,0,0,1,4-.94,6.5,6.5,0,0,1,4.4,1.29,4.16,4.16,0,0,1,1.09,3.28v1a35.73,35.73,0,0,1-6.88,1.32,28.36,28.36,0,0,0-3.44.57,9.34,9.34,0,0,0-2.77,1.24,6.27,6.27,0,0,0-2,2.19,6.06,6.06,0,0,0-.76,3,5.9,5.9,0,0,0,2,4.62,8.32,8.32,0,0,0,5.79,1.83Zm.92-3a5.06,5.06,0,0,1-3.42-1,3.2,3.2,0,0,1-1.17-2.54,3.33,3.33,0,0,1,.53-1.81,3.42,3.42,0,0,1,1.53-1.23,13.76,13.76,0,0,1,3.36-.76,29,29,0,0,0,6.31-1.44h0v1.39a9.18,9.18,0,0,1-.62,3.81,6.05,6.05,0,0,1-2.55,2.63,8,8,0,0,1-4,1Zm20.91-24.16V281H449.2v4.38Zm0,26.63V289.55H449.2V312Zm9.65,0V281H458.9v31Zm12.46.51a12.13,12.13,0,0,0,4.26-.74,14.51,14.51,0,0,0,4.13-2.54,7.9,7.9,0,0,0,.77,2.77h4a8.46,8.46,0,0,1-1-2.7,53.69,53.69,0,0,1-.24-6.71v-5.08a20.61,20.61,0,0,0-.2-3.51,5.82,5.82,0,0,0-1.2-2.59,6.13,6.13,0,0,0-2.68-1.7,13.39,13.39,0,0,0-4.74-.68,15.39,15.39,0,0,0-5.17.79,7.48,7.48,0,0,0-3.41,2.27,9.17,9.17,0,0,0-1.69,3.86h0l3.77.5a5.77,5.77,0,0,1,1.92-3.33,6.92,6.92,0,0,1,4-.94,6.47,6.47,0,0,1,4.39,1.29,4.2,4.2,0,0,1,1.1,3.28v1a35,35,0,0,1-6.88,1.32,28.53,28.53,0,0,0-3.43.57,9.39,9.39,0,0,0-2.78,1.24,6.27,6.27,0,0,0-2,2.19,6.06,6.06,0,0,0-.76,3,5.94,5.94,0,0,0,2,4.62,8.33,8.33,0,0,0,5.79,1.86Zm.92-3a5.06,5.06,0,0,1-3.42-1,3.29,3.29,0,0,1,.89-5.58,14,14,0,0,1,3.37-.76,28.93,28.93,0,0,0,6.3-1.44h0v1.39a9,9,0,0,1-.62,3.81,6,6,0,0,1-2.55,2.63,8.06,8.06,0,0,1-4,1Zm26.92,3a9.08,9.08,0,0,0,6.95-3.15c1.93-2.1,2.9-5.08,2.89-8.93a15.06,15.06,0,0,0-.68-4.57,11.46,11.46,0,0,0-1.9-3.65,8.19,8.19,0,0,0-3.09-2.35,9.82,9.82,0,0,0-4-.83,7.69,7.69,0,0,0-6.24,3h0V281H493.1v31h3.58v-2.8a7.3,7.3,0,0,0,6.32,3.32Zm-.32-3.13a5.58,5.58,0,0,1-4.94-2.94q-1.11-1.8-1.11-5.84a9.58,9.58,0,0,1,1.84-6.27,5.57,5.57,0,0,1,4.38-2.17,5.43,5.43,0,0,1,4.28,2.09c1.18,1.4,1.77,3.56,1.77,6.5s-.62,5-1.85,6.46a5.57,5.57,0,0,1-4.42,2.21ZM521.32,312V281h-3.86v31Zm15.55.51a10.68,10.68,0,0,0,6.52-1.9,9.67,9.67,0,0,0,3.5-5.36h0l-4-.48a7.34,7.34,0,0,1-2.38,3.51,6,6,0,0,1-3.63,1.1,6.38,6.38,0,0,1-4.76-2,8.56,8.56,0,0,1-2.12-5.67h17v-1q0-5.56-2.9-8.63a9.77,9.77,0,0,0-7.46-3.07,10.06,10.06,0,0,0-7.68,3.13q-3,3.14-3,8.8c0,3.65,1,6.48,2.93,8.51a10.47,10.47,0,0,0,8,3.07Zm6.07-13.9H530.22a6.89,6.89,0,0,1,2-4.69,6.15,6.15,0,0,1,4.47-1.76,5.93,5.93,0,0,1,4.78,2.2,7.49,7.49,0,0,1,1.46,4.25Z"/><path id="Shape" class="cls-3" d="M325,147.43A15.43,15.43,0,1,0,309.59,132v0A15.43,15.43,0,0,0,325,147.43Zm0-20.57a5.14,5.14,0,1,1-5.15,5.14,5.14,5.14,0,0,1,5.15-5.14ZM422.73,96H299.3A10.29,10.29,0,0,0,289,106.28h0V229.71A10.29,10.29,0,0,0,299.29,240H422.73A10.28,10.28,0,0,0,433,229.71V106.29A10.28,10.28,0,0,0,422.73,96Zm0,133.71H299.3V204H422.73Zm-106.33-36,16.72-22.28L346,188.57l-3.85,5.14Zm38.57,0,24.43-32.57,24.43,32.57Zm67.76,0h-6l-33.17-44.22a5.34,5.34,0,0,0-7.52-.72,5.44,5.44,0,0,0-.72.72L352.4,180l-15.17-20.23a5.33,5.33,0,0,0-7.5-.73,5,5,0,0,0-.73.73l-25.46,33.94H299.3V106.29H422.73Z"/></svg>