<svg id="svg" version="1.1" xmlns="http://www.w3.org/2000/svg" xmlns:xlink="http://www.w3.org/1999/xlink" width="400" height="400" viewBox="0, 0, 400,400"><g id="svgg"><path id="path0" d="M0.000 200.000 L 0.000 400.000 200.000 400.000 L 400.000 400.000 400.000 200.000 L 400.000 0.000 200.000 0.000 L 0.000 0.000 0.000 200.000 M285.709 125.200 C 286.269 125.640,287.030 126.000,287.401 126.000 C 287.771 126.000,288.169 126.360,288.284 126.800 C 288.399 127.240,288.766 127.600,289.100 127.600 C 290.057 127.600,292.799 130.491,292.800 131.500 C 292.800 132.133,293.037 132.400,293.600 132.400 C 294.236 132.400,294.400 132.667,294.400 133.704 C 294.400 134.574,294.666 135.174,295.200 135.507 C 296.464 136.296,296.464 265.954,295.200 266.284 C 294.603 266.440,294.400 266.830,294.400 267.820 C 294.400 268.795,294.188 269.213,293.600 269.400 C 293.160 269.540,292.800 269.917,292.800 270.240 C 292.800 270.562,292.530 270.929,292.200 271.055 C 291.870 271.182,291.600 271.481,291.600 271.721 C 291.600 272.352,289.546 274.400,288.913 274.400 C 288.617 274.400,288.271 274.670,288.145 275.000 C 288.018 275.330,287.512 275.600,287.019 275.600 C 286.527 275.600,285.798 275.960,285.400 276.400 C 284.680 277.195,284.168 277.200,200.141 277.200 C 116.040 277.200,115.604 277.196,115.107 276.400 C 114.801 275.910,114.174 275.600,113.491 275.600 C 112.877 275.600,112.278 275.348,112.160 275.039 C 112.041 274.731,111.597 274.388,111.172 274.277 C 110.748 274.166,110.400 273.809,110.400 273.484 C 110.400 273.159,110.040 272.799,109.600 272.684 C 109.160 272.569,108.800 272.209,108.800 271.884 C 108.800 271.559,108.440 271.199,108.000 271.084 C 107.521 270.959,107.200 270.538,107.200 270.037 C 107.200 269.577,106.949 269.200,106.643 269.200 C 105.978 269.200,105.600 268.341,105.600 266.829 C 105.600 266.221,105.240 265.398,104.800 265.000 C 104.006 264.282,104.000 263.768,104.000 200.338 C 104.000 136.933,104.007 136.393,104.800 135.600 C 105.240 135.160,105.600 134.545,105.600 134.233 C 105.600 133.227,106.071 132.400,106.643 132.400 C 106.949 132.400,107.200 132.074,107.200 131.676 C 107.200 130.834,110.541 127.600,111.411 127.600 C 111.735 127.600,112.000 127.240,112.000 126.800 C 112.000 126.255,112.267 126.000,112.837 126.000 C 113.297 126.000,114.131 125.640,114.691 125.200 C 115.701 124.406,116.314 124.400,200.200 124.400 C 284.086 124.400,284.699 124.406,285.709 125.200 M119.600 200.775 L 119.600 261.951 121.300 262.193 C 123.919 262.565,280.288 262.245,280.667 261.867 C 281.157 261.376,281.304 141.925,280.815 140.639 L 280.420 139.600 200.010 139.600 L 119.600 139.600 119.600 200.775 M154.141 149.567 C 155.209 149.742,156.199 150.065,156.341 150.285 C 156.483 150.505,157.270 150.808,158.089 150.958 C 158.908 151.109,159.718 151.464,159.889 151.746 C 160.060 152.029,160.515 152.376,160.900 152.518 C 161.285 152.659,161.600 153.051,161.600 153.387 C 161.600 153.724,161.903 154.000,162.274 154.000 C 163.192 154.000,164.800 155.572,164.800 156.470 C 164.800 156.871,165.076 157.200,165.413 157.200 C 165.749 157.200,166.140 157.515,166.281 157.900 C 166.421 158.285,166.866 159.029,167.268 159.554 C 167.671 160.079,168.000 160.869,168.000 161.310 C 168.000 161.751,168.315 162.342,168.700 162.624 C 169.313 163.072,169.400 163.882,169.400 169.126 C 169.400 174.269,169.301 175.225,168.700 175.890 C 168.315 176.315,168.000 177.071,168.000 177.569 C 168.000 178.138,167.703 178.553,167.200 178.684 C 166.634 178.832,166.400 179.230,166.400 180.043 C 166.400 180.760,166.099 181.381,165.600 181.693 C 165.160 181.968,164.800 182.419,164.800 182.696 C 164.800 182.973,164.634 183.200,164.431 183.200 C 164.228 183.200,163.357 183.919,162.496 184.797 C 161.629 185.682,160.378 186.504,159.691 186.642 C 159.009 186.778,158.364 187.117,158.258 187.394 C 158.151 187.672,157.438 188.016,156.672 188.160 C 155.907 188.304,155.069 188.676,154.810 188.988 C 154.143 189.791,145.266 189.838,144.960 189.040 C 144.845 188.740,143.860 188.378,142.757 188.232 C 141.574 188.075,140.671 187.730,140.538 187.384 C 140.415 187.063,139.957 186.800,139.520 186.800 C 139.062 186.800,138.637 186.461,138.516 186.000 C 138.401 185.560,137.983 185.200,137.587 185.200 C 136.823 185.200,132.400 180.590,132.400 179.793 C 132.400 179.534,132.037 178.904,131.594 178.393 C 131.150 177.882,130.678 176.777,130.544 175.939 C 130.410 175.101,130.053 174.210,129.750 173.959 C 128.967 173.309,128.962 165.377,129.744 165.077 C 130.048 164.960,130.408 163.963,130.560 162.815 C 130.713 161.660,131.072 160.671,131.380 160.552 C 131.681 160.437,132.048 159.862,132.196 159.274 C 132.343 158.687,132.716 157.935,133.024 157.603 C 134.631 155.874,135.600 154.647,135.600 154.342 C 135.600 154.154,135.960 154.000,136.400 154.000 C 136.844 154.000,137.200 153.733,137.200 153.400 C 137.200 153.070,137.399 152.800,137.642 152.800 C 137.885 152.800,138.619 152.350,139.273 151.800 C 139.927 151.250,140.772 150.800,141.151 150.800 C 141.530 150.800,142.057 150.583,142.322 150.318 C 143.257 149.383,150.297 148.935,154.141 149.567 M230.000 166.000 C 230.235 166.440,230.601 166.800,230.812 166.800 C 231.364 166.800,238.000 173.393,238.000 173.941 C 238.000 174.194,238.287 174.400,238.637 174.400 C 238.988 174.400,239.369 174.760,239.484 175.200 C 239.600 175.643,240.030 176.000,240.447 176.000 C 240.933 176.000,241.200 176.283,241.200 176.800 C 241.200 177.265,241.467 177.600,241.837 177.600 C 242.188 177.600,242.569 177.960,242.684 178.400 C 242.800 178.843,243.230 179.200,243.647 179.200 C 244.133 179.200,244.400 179.483,244.400 180.000 C 244.400 180.533,244.667 180.800,245.200 180.800 C 245.733 180.800,246.000 181.067,246.000 181.600 C 246.000 182.040,246.212 182.400,246.470 182.400 C 246.729 182.400,248.256 183.750,249.864 185.400 C 251.471 187.050,252.958 188.400,253.166 188.400 C 253.375 188.400,253.655 188.743,253.788 189.163 C 253.921 189.583,254.294 190.027,254.615 190.150 C 254.937 190.274,255.200 190.651,255.200 190.987 C 255.200 191.333,255.548 191.600,256.000 191.600 C 256.533 191.600,256.800 191.867,256.800 192.400 C 256.800 192.933,257.067 193.200,257.600 193.200 C 258.133 193.200,258.400 193.467,258.400 194.000 C 258.400 194.465,258.667 194.800,259.037 194.800 C 259.388 194.800,259.769 195.160,259.884 195.600 C 260.000 196.043,260.430 196.400,260.847 196.400 C 261.333 196.400,261.600 196.683,261.600 197.200 C 261.600 197.665,261.867 198.000,262.237 198.000 C 262.588 198.000,262.969 198.360,263.084 198.800 C 263.199 199.240,263.483 199.600,263.716 199.600 C 263.948 199.600,265.105 200.590,266.286 201.800 C 267.467 203.010,268.606 204.000,268.817 204.000 C 269.028 204.000,269.200 204.173,269.200 204.384 C 269.200 204.596,269.582 205.125,270.050 205.560 C 271.284 206.710,271.391 250.979,270.162 251.877 C 269.003 252.725,130.129 252.451,129.592 251.600 C 129.380 251.265,129.210 246.701,129.206 241.269 L 129.200 231.538 130.369 230.369 C 131.012 229.726,131.634 229.200,131.751 229.200 C 132.117 229.200,133.872 227.311,134.129 226.640 C 134.264 226.288,134.651 226.000,134.987 226.000 C 135.324 226.000,135.600 225.730,135.600 225.400 C 135.600 225.070,135.827 224.800,136.104 224.800 C 136.382 224.800,137.057 224.237,137.604 223.548 C 138.152 222.859,139.114 221.824,139.742 221.248 C 142.381 218.826,143.082 218.083,143.322 217.459 C 143.461 217.097,143.746 216.800,143.956 216.800 C 144.445 216.800,148.000 213.256,148.000 212.768 C 148.000 212.566,148.160 212.400,148.355 212.400 C 148.849 212.400,159.200 202.091,159.200 201.599 C 159.200 201.380,159.430 201.200,159.711 201.200 C 159.992 201.200,160.527 200.844,160.900 200.408 C 161.548 199.652,162.800 199.674,162.800 200.443 C 162.800 200.639,163.177 200.800,163.637 200.800 C 164.125 200.800,164.558 201.119,164.674 201.563 C 164.784 201.983,165.217 202.416,165.637 202.526 C 166.057 202.635,166.400 202.991,166.400 203.316 C 166.400 203.641,166.760 204.001,167.200 204.116 C 167.640 204.231,168.000 204.591,168.000 204.916 C 168.000 205.241,168.360 205.601,168.800 205.716 C 169.240 205.831,169.600 206.191,169.600 206.516 C 169.600 206.841,169.960 207.201,170.400 207.316 C 170.840 207.431,171.200 207.812,171.200 208.163 C 171.200 208.513,171.458 208.800,171.773 208.800 C 172.088 208.800,172.460 209.160,172.600 209.600 C 172.740 210.040,173.100 210.400,173.400 210.400 C 173.700 210.400,174.060 210.760,174.200 211.200 C 174.340 211.640,174.712 212.000,175.027 212.000 C 175.342 212.000,175.600 212.249,175.600 212.553 C 175.600 212.858,175.960 213.201,176.400 213.316 C 176.840 213.431,177.200 213.795,177.200 214.125 C 177.200 214.969,179.090 214.063,179.343 213.097 C 179.447 212.700,180.063 212.287,180.763 212.147 C 181.443 212.011,182.000 211.727,182.000 211.515 C 182.000 210.538,184.644 207.531,185.688 207.322 C 186.343 207.191,186.800 206.839,186.800 206.465 C 186.800 205.589,190.003 202.400,190.883 202.400 C 191.305 202.400,191.600 202.106,191.600 201.684 C 191.600 201.056,192.475 200.115,195.444 197.546 C 195.860 197.187,196.914 196.062,197.787 195.046 C 198.660 194.031,199.695 193.200,200.087 193.200 C 200.479 193.200,200.800 192.957,200.800 192.661 C 200.800 191.814,204.062 188.400,204.872 188.400 C 205.272 188.400,205.600 188.157,205.600 187.861 C 205.600 187.014,208.862 183.600,209.672 183.600 C 210.072 183.600,210.402 183.375,210.405 183.100 C 210.412 182.372,213.464 179.200,214.157 179.200 C 214.481 179.200,214.853 178.863,214.984 178.452 C 215.292 177.479,218.404 174.400,219.079 174.400 C 219.366 174.400,219.600 174.163,219.600 173.874 C 219.600 173.189,223.189 169.600,223.874 169.600 C 224.163 169.600,224.406 169.375,224.413 169.100 C 224.468 166.922,229.114 164.344,230.000 166.000 " stroke="none" fill="#ececec" fill-rule="evenodd"></path><path id="path1" d="M117.893 126.650 C 115.909 127.010,114.500 127.500,113.993 128.007 C 113.557 128.443,113.030 128.800,112.822 128.800 C 112.268 128.800,108.400 132.824,108.400 133.400 C 108.400 133.671,107.995 134.407,107.500 135.036 L 106.600 136.181 106.600 200.590 L 106.600 265.000 107.719 266.996 C 109.592 270.335,111.996 272.619,115.600 274.483 C 117.955 275.701,284.749 275.341,285.539 274.116 C 285.683 273.894,286.340 273.434,287.000 273.094 C 288.670 272.234,291.198 269.647,291.842 268.137 C 292.138 267.442,292.571 266.810,292.805 266.732 C 293.817 266.394,293.986 256.974,293.986 200.800 C 293.986 142.743,293.846 135.788,292.650 134.593 C 292.321 134.264,291.931 133.612,291.782 133.143 C 291.286 131.581,287.786 128.542,285.000 127.255 C 282.481 126.091,276.080 126.001,199.179 126.044 C 133.850 126.080,120.489 126.180,117.893 126.650 M282.101 138.364 L 283.200 139.528 283.200 200.828 L 283.200 262.129 281.928 263.264 L 280.656 264.400 200.088 264.400 L 119.521 264.400 118.260 263.100 L 117.000 261.800 116.885 201.800 C 116.762 137.380,116.709 139.921,118.216 138.296 L 119.232 137.200 200.117 137.200 L 281.003 137.200 282.101 138.364 M145.200 151.969 C 140.786 152.744,133.200 158.955,133.200 161.792 C 133.200 162.249,132.885 163.067,132.500 163.611 C 131.493 165.034,131.498 173.242,132.506 175.000 C 132.885 175.660,133.196 176.416,133.198 176.680 C 133.205 178.104,137.060 182.587,139.770 184.322 C 144.129 187.114,151.376 188.096,155.118 186.402 C 160.214 184.095,160.472 183.908,164.296 179.747 C 164.789 179.210,165.301 178.336,165.435 177.802 C 165.569 177.269,165.931 176.623,166.239 176.367 C 166.548 176.111,166.814 175.249,166.832 174.451 C 166.850 173.653,167.078 172.190,167.340 171.200 C 167.719 169.766,167.703 168.790,167.260 166.400 C 166.055 159.884,163.375 156.407,156.868 152.917 C 154.936 151.881,148.619 151.368,145.200 151.969 M228.447 167.971 C 228.207 168.119,217.031 179.120,203.613 192.416 C 190.195 205.713,178.788 216.706,178.264 216.846 C 177.435 217.068,176.318 216.119,169.677 209.552 L 162.042 202.002 160.028 204.101 C 156.835 207.429,156.132 208.130,154.827 209.294 C 154.152 209.895,153.596 210.525,153.591 210.694 C 153.585 210.862,152.865 211.530,151.991 212.177 C 151.116 212.824,150.400 213.470,150.400 213.612 C 150.400 213.754,149.583 214.664,148.584 215.635 C 147.585 216.606,143.351 220.785,139.176 224.922 L 131.585 232.443 131.692 241.122 L 131.800 249.800 200.100 249.901 C 254.606 249.982,268.402 249.901,268.410 249.501 C 268.416 249.226,268.411 239.555,268.400 228.012 L 268.380 207.024 248.633 187.362 C 237.243 176.022,228.700 167.815,228.447 167.971 " stroke="none" fill="#bcbcbc" fill-rule="evenodd"></path><path id="path2" d="M119.800 125.476 C 115.200 126.100,108.000 130.764,108.000 133.119 C 108.000 133.324,107.595 134.007,107.100 134.636 L 106.200 135.780 106.200 200.590 L 106.200 265.400 107.560 267.739 C 109.774 271.546,112.807 274.113,116.400 275.221 C 118.776 275.953,275.802 276.313,281.000 275.598 C 288.127 274.617,293.056 270.081,294.255 263.400 C 295.084 258.781,295.016 142.429,294.182 138.031 C 293.104 132.350,288.797 127.629,283.278 126.077 C 281.134 125.475,124.065 124.897,119.800 125.476 M280.779 126.443 C 284.246 126.891,284.870 127.080,286.974 128.312 C 288.626 129.280,291.460 132.127,291.782 133.143 C 291.931 133.612,292.321 134.264,292.650 134.593 C 294.560 136.503,294.712 266.096,292.805 266.732 C 292.571 266.810,292.138 267.442,291.842 268.137 C 291.198 269.647,288.670 272.234,287.000 273.094 C 286.340 273.434,285.683 273.894,285.539 274.116 C 284.749 275.341,117.955 275.701,115.600 274.483 C 111.996 272.619,109.592 270.335,107.719 266.996 L 106.600 265.000 106.600 200.590 L 106.600 136.181 107.500 135.036 C 107.995 134.407,108.400 133.671,108.400 133.400 C 108.400 132.824,112.268 128.800,112.822 128.800 C 113.030 128.800,113.557 128.443,113.993 128.007 C 115.919 126.081,115.519 126.090,199.179 126.044 C 254.239 126.013,278.370 126.131,280.779 126.443 M118.216 138.296 C 116.709 139.921,116.762 137.380,116.885 201.800 L 117.000 261.800 118.260 263.100 L 119.521 264.400 200.088 264.400 L 280.656 264.400 281.928 263.264 L 283.200 262.129 283.200 200.828 L 283.200 139.528 282.101 138.364 L 281.003 137.200 200.117 137.200 L 119.232 137.200 118.216 138.296 M281.764 138.831 L 282.800 140.061 282.800 200.976 L 282.800 261.891 281.278 262.946 L 279.757 264.000 199.899 264.000 L 120.041 264.000 118.822 262.700 L 117.604 261.400 117.602 200.622 L 117.600 139.844 118.675 138.722 L 119.750 137.600 200.239 137.600 L 280.729 137.600 281.764 138.831 M148.553 150.817 C 148.139 150.968,146.732 151.223,145.427 151.383 C 140.215 152.026,134.566 156.857,132.250 162.653 C 126.189 177.826,142.916 193.334,157.426 185.995 C 173.820 177.703,170.714 154.569,152.753 151.192 C 150.857 150.835,148.967 150.667,148.553 150.817 M156.868 152.917 C 163.375 156.407,166.055 159.884,167.260 166.400 C 167.703 168.790,167.719 169.766,167.340 171.200 C 167.078 172.190,166.850 173.653,166.832 174.451 C 166.814 175.249,166.548 176.111,166.239 176.367 C 165.931 176.623,165.569 177.269,165.435 177.802 C 165.301 178.336,164.789 179.210,164.296 179.747 C 160.472 183.908,160.214 184.095,155.118 186.402 C 151.376 188.096,144.129 187.114,139.770 184.322 C 137.060 182.587,133.205 178.104,133.198 176.680 C 133.196 176.416,132.885 175.660,132.506 175.000 C 131.498 173.242,131.493 165.034,132.500 163.611 C 132.885 163.067,133.200 162.249,133.200 161.792 C 133.200 158.955,140.786 152.744,145.200 151.969 C 148.619 151.368,154.936 151.881,156.868 152.917 M203.619 191.500 C 190.166 204.865,178.741 215.913,178.231 216.052 C 177.432 216.268,176.354 215.351,170.551 209.521 C 161.789 200.719,162.342 200.984,159.283 204.117 C 157.950 205.483,151.041 212.360,143.930 219.400 L 131.000 232.200 130.871 240.724 C 130.778 246.910,130.874 249.407,131.220 249.824 C 131.714 250.419,267.030 250.747,268.567 250.157 C 269.133 249.940,269.200 247.655,269.200 228.460 L 269.200 207.005 249.170 187.103 C 238.153 176.156,228.901 167.200,228.610 167.200 C 228.318 167.200,217.073 178.135,203.619 191.500 M268.400 228.012 C 268.411 239.555,268.416 249.226,268.410 249.501 C 268.402 249.901,254.606 249.982,200.100 249.901 L 131.800 249.800 131.692 241.122 L 131.585 232.443 139.176 224.922 C 143.351 220.785,147.585 216.606,148.584 215.635 C 149.583 214.664,150.400 213.754,150.400 213.612 C 150.400 213.470,151.116 212.824,151.991 212.177 C 152.865 211.530,153.585 210.862,153.591 210.694 C 153.596 210.525,154.152 209.895,154.827 209.294 C 156.132 208.130,156.835 207.429,160.028 204.101 L 162.042 202.002 169.677 209.552 C 176.318 216.119,177.435 217.068,178.264 216.846 C 178.788 216.706,190.195 205.713,203.613 192.416 C 217.031 179.120,228.207 168.119,228.447 167.971 C 228.700 167.815,237.243 176.022,248.633 187.362 L 268.380 207.024 268.400 228.012 " stroke="none" fill="#cccccc" fill-rule="evenodd"></path><path id="path3" d="M117.173 125.339 C 116.609 125.634,115.689 125.991,115.130 126.132 C 112.986 126.670,108.040 131.145,107.428 133.100 C 107.273 133.595,106.991 134.000,106.801 134.000 C 105.213 134.000,105.170 135.734,105.192 199.901 C 105.214 263.802,105.255 265.431,106.873 267.554 C 107.273 268.079,107.600 268.724,107.600 268.988 C 107.600 270.307,113.196 274.896,115.467 275.439 C 116.090 275.588,116.853 275.910,117.161 276.155 C 118.055 276.863,280.385 276.781,282.800 276.071 C 288.457 274.408,293.674 269.668,294.292 265.628 C 294.413 264.843,294.711 263.947,294.956 263.639 C 295.533 262.910,295.804 142.396,295.234 139.642 C 294.380 135.511,293.925 134.301,292.400 132.102 C 290.706 129.660,286.894 126.510,285.210 126.161 C 284.655 126.046,283.840 125.738,283.400 125.476 C 282.145 124.729,118.594 124.594,117.173 125.339 M283.278 126.077 C 288.797 127.629,293.104 132.350,294.182 138.031 C 295.016 142.429,295.084 258.781,294.255 263.400 C 293.056 270.081,288.127 274.617,281.000 275.598 C 275.802 276.313,118.776 275.953,116.400 275.221 C 112.807 274.113,109.774 271.546,107.560 267.739 L 106.200 265.400 106.200 200.590 L 106.200 135.780 107.100 134.636 C 107.595 134.007,108.000 133.324,108.000 133.119 C 108.000 130.764,115.200 126.100,119.800 125.476 C 124.065 124.897,281.134 125.475,283.278 126.077 M118.675 138.722 L 117.600 139.844 117.602 200.622 L 117.604 261.400 118.822 262.700 L 120.041 264.000 199.899 264.000 L 279.757 264.000 281.278 262.946 L 282.800 261.891 282.800 200.976 L 282.800 140.061 281.764 138.831 L 280.729 137.600 200.239 137.600 L 119.750 137.600 118.675 138.722 M280.800 138.339 C 280.800 138.525,281.160 139.093,281.600 139.600 C 282.426 140.553,282.911 260.263,282.094 261.414 C 281.932 261.641,281.281 262.226,280.646 262.714 L 279.492 263.600 199.982 263.600 L 120.471 263.600 119.435 262.369 C 117.902 260.547,117.970 263.715,118.089 200.000 L 118.200 140.600 119.127 139.300 L 120.054 138.000 200.427 138.000 C 244.632 138.000,280.800 138.152,280.800 138.339 M145.000 150.791 C 142.118 151.515,138.800 153.025,138.800 153.613 C 138.800 153.796,138.437 154.061,137.994 154.202 C 137.019 154.511,133.273 159.134,132.063 161.522 C 130.197 165.203,129.983 174.271,131.712 176.357 C 132.006 176.711,132.476 177.540,132.758 178.200 C 133.338 179.558,136.020 183.200,136.440 183.200 C 136.591 183.200,137.247 183.697,137.897 184.304 C 141.963 188.102,152.346 189.308,157.800 186.615 C 163.421 183.841,167.637 177.803,168.898 170.721 C 169.855 165.346,164.809 155.636,159.800 153.215 C 159.140 152.896,158.315 152.401,157.967 152.116 C 155.778 150.322,149.443 149.675,145.000 150.791 M158.400 153.015 C 171.782 160.165,171.225 179.015,157.426 185.995 C 142.916 193.334,126.189 177.826,132.250 162.653 C 134.566 156.857,140.215 152.026,145.427 151.383 C 146.732 151.223,148.139 150.968,148.553 150.817 C 149.809 150.360,156.030 151.749,158.400 153.015 M206.918 187.354 C 195.653 198.619,185.933 208.295,185.318 208.857 C 184.703 209.418,183.644 210.490,182.965 211.239 C 180.808 213.617,178.525 215.600,177.953 215.593 C 177.649 215.589,174.250 212.434,170.400 208.581 C 166.550 204.728,162.992 201.471,162.493 201.343 C 161.719 201.144,159.729 202.959,148.995 213.655 C 142.070 220.555,136.178 226.405,135.902 226.656 C 135.626 226.907,134.538 228.032,133.484 229.156 C 132.430 230.280,131.412 231.200,131.223 231.200 C 130.348 231.200,130.000 234.165,130.000 241.624 L 130.000 249.529 131.231 250.564 L 132.461 251.600 200.177 251.600 L 267.892 251.600 268.946 250.771 L 270.000 249.942 270.000 228.945 C 270.000 214.414,269.864 207.678,269.558 207.074 C 268.469 204.920,229.528 166.799,228.455 166.836 C 227.615 166.865,223.224 171.048,206.918 187.354 M249.170 187.103 L 269.200 207.005 269.200 228.460 C 269.200 247.655,269.133 249.940,268.567 250.157 C 267.030 250.747,131.714 250.419,131.220 249.824 C 130.874 249.407,130.778 246.910,130.871 240.724 L 131.000 232.200 143.930 219.400 C 151.041 212.360,157.950 205.483,159.283 204.117 C 162.342 200.984,161.789 200.719,170.551 209.521 C 176.354 215.351,177.432 216.268,178.231 216.052 C 178.741 215.913,190.166 204.865,203.619 191.500 C 217.073 178.135,228.318 167.200,228.610 167.200 C 228.901 167.200,238.153 176.156,249.170 187.103 " stroke="none" fill="#d4d4d4" fill-rule="evenodd"></path><path id="path4" d="M114.691 125.200 C 114.131 125.640,113.297 126.000,112.837 126.000 C 112.267 126.000,112.000 126.255,112.000 126.800 C 112.000 127.240,111.735 127.600,111.411 127.600 C 110.541 127.600,107.200 130.834,107.200 131.676 C 107.200 132.074,106.949 132.400,106.643 132.400 C 106.071 132.400,105.600 133.227,105.600 134.233 C 105.600 134.545,105.240 135.160,104.800 135.600 C 104.007 136.393,104.000 136.933,104.000 200.338 C 104.000 263.768,104.006 264.282,104.800 265.000 C 105.240 265.398,105.600 266.221,105.600 266.829 C 105.600 268.341,105.978 269.200,106.643 269.200 C 106.949 269.200,107.200 269.577,107.200 270.037 C 107.200 270.538,107.521 270.959,108.000 271.084 C 108.440 271.199,108.800 271.559,108.800 271.884 C 108.800 272.209,109.160 272.569,109.600 272.684 C 110.040 272.799,110.400 273.159,110.400 273.484 C 110.400 273.809,110.748 274.166,111.172 274.277 C 111.597 274.388,112.041 274.731,112.160 275.039 C 112.278 275.348,112.877 275.600,113.491 275.600 C 114.174 275.600,114.801 275.910,115.107 276.400 C 115.896 277.664,284.256 277.664,285.400 276.400 C 285.798 275.960,286.527 275.600,287.019 275.600 C 287.512 275.600,288.018 275.330,288.145 275.000 C 288.271 274.670,288.617 274.400,288.913 274.400 C 289.546 274.400,291.600 272.352,291.600 271.721 C 291.600 271.481,291.870 271.182,292.200 271.055 C 292.530 270.929,292.800 270.562,292.800 270.240 C 292.800 269.917,293.160 269.540,293.600 269.400 C 294.188 269.213,294.400 268.795,294.400 267.820 C 294.400 266.830,294.603 266.440,295.200 266.284 C 296.464 265.954,296.464 136.296,295.200 135.507 C 294.666 135.174,294.400 134.574,294.400 133.704 C 294.400 132.667,294.236 132.400,293.600 132.400 C 293.037 132.400,292.800 132.133,292.800 131.500 C 292.799 130.491,290.057 127.600,289.100 127.600 C 288.766 127.600,288.399 127.240,288.284 126.800 C 288.169 126.360,287.771 126.000,287.401 126.000 C 287.030 126.000,286.269 125.640,285.709 125.200 C 284.699 124.406,284.086 124.400,200.200 124.400 C 116.314 124.400,115.701 124.406,114.691 125.200 M283.400 125.476 C 283.840 125.738,284.655 126.046,285.210 126.161 C 286.894 126.510,290.706 129.660,292.400 132.102 C 293.925 134.301,294.380 135.511,295.234 139.642 C 295.804 142.396,295.533 262.910,294.956 263.639 C 294.711 263.947,294.413 264.843,294.292 265.628 C 293.674 269.668,288.457 274.408,282.800 276.071 C 280.385 276.781,118.055 276.863,117.161 276.155 C 116.853 275.910,116.090 275.588,115.467 275.439 C 113.196 274.896,107.600 270.307,107.600 268.988 C 107.600 268.724,107.273 268.079,106.873 267.554 C 105.255 265.431,105.214 263.802,105.192 199.901 C 105.170 135.734,105.213 134.000,106.801 134.000 C 106.991 134.000,107.273 133.595,107.428 133.100 C 108.040 131.145,112.986 126.670,115.130 126.132 C 115.689 125.991,116.609 125.634,117.173 125.339 C 118.594 124.594,282.145 124.729,283.400 125.476 M119.127 139.300 L 118.200 140.600 118.089 200.000 C 117.970 263.715,117.902 260.547,119.435 262.369 L 120.471 263.600 199.982 263.600 L 279.492 263.600 280.646 262.714 C 281.281 262.226,281.932 261.641,282.094 261.414 C 282.911 260.263,282.426 140.553,281.600 139.600 C 281.160 139.093,280.800 138.525,280.800 138.339 C 280.800 138.152,244.632 138.000,200.427 138.000 L 120.054 138.000 119.127 139.300 M280.815 140.639 C 281.304 141.925,281.157 261.376,280.667 261.867 C 280.288 262.245,123.919 262.565,121.300 262.193 L 119.600 261.951 119.600 200.775 L 119.600 139.600 200.010 139.600 L 280.420 139.600 280.815 140.639 M144.702 149.572 C 143.658 149.717,142.587 150.053,142.322 150.318 C 142.057 150.583,141.530 150.800,141.151 150.800 C 140.772 150.800,139.927 151.250,139.273 151.800 C 138.619 152.350,137.885 152.800,137.642 152.800 C 137.399 152.800,137.200 153.070,137.200 153.400 C 137.200 153.733,136.844 154.000,136.400 154.000 C 135.960 154.000,135.600 154.154,135.600 154.342 C 135.600 154.647,134.631 155.874,133.024 157.603 C 132.716 157.935,132.343 158.687,132.196 159.274 C 132.048 159.862,131.681 160.437,131.380 160.552 C 131.072 160.671,130.713 161.660,130.560 162.815 C 130.408 163.963,130.048 164.960,129.744 165.077 C 128.962 165.377,128.967 173.309,129.750 173.959 C 130.053 174.210,130.410 175.101,130.544 175.939 C 130.678 176.777,131.150 177.882,131.594 178.393 C 132.037 178.904,132.400 179.534,132.400 179.793 C 132.400 180.590,136.823 185.200,137.587 185.200 C 137.983 185.200,138.401 185.560,138.516 186.000 C 138.637 186.461,139.062 186.800,139.520 186.800 C 139.957 186.800,140.415 187.063,140.538 187.384 C 140.671 187.730,141.574 188.075,142.757 188.232 C 143.860 188.378,144.845 188.740,144.960 189.040 C 145.266 189.838,154.143 189.791,154.810 188.988 C 155.069 188.676,155.907 188.304,156.672 188.160 C 157.438 188.016,158.151 187.672,158.258 187.394 C 158.364 187.117,159.009 186.778,159.691 186.642 C 160.378 186.504,161.629 185.682,162.496 184.797 C 163.357 183.919,164.228 183.200,164.431 183.200 C 164.634 183.200,164.800 182.973,164.800 182.696 C 164.800 182.419,165.160 181.968,165.600 181.693 C 166.099 181.381,166.400 180.760,166.400 180.043 C 166.400 179.230,166.634 178.832,167.200 178.684 C 167.703 178.553,168.000 178.138,168.000 177.569 C 168.000 177.071,168.315 176.315,168.700 175.890 C 169.301 175.225,169.400 174.269,169.400 169.126 C 169.400 163.882,169.313 163.072,168.700 162.624 C 168.315 162.342,168.000 161.751,168.000 161.310 C 168.000 160.869,167.671 160.079,167.268 159.554 C 166.866 159.029,166.421 158.285,166.281 157.900 C 166.140 157.515,165.749 157.200,165.413 157.200 C 165.076 157.200,164.800 156.871,164.800 156.470 C 164.800 155.572,163.192 154.000,162.274 154.000 C 161.903 154.000,161.600 153.724,161.600 153.387 C 161.600 153.051,161.285 152.659,160.900 152.518 C 160.515 152.376,160.060 152.029,159.889 151.746 C 159.718 151.464,158.908 151.109,158.089 150.958 C 157.270 150.808,156.483 150.505,156.341 150.285 C 155.753 149.379,149.038 148.967,144.702 149.572 M154.367 150.808 C 155.998 151.242,157.618 151.830,157.967 152.116 C 158.315 152.401,159.140 152.896,159.800 153.215 C 164.809 155.636,169.855 165.346,168.898 170.721 C 167.637 177.803,163.421 183.841,157.800 186.615 C 152.346 189.308,141.963 188.102,137.897 184.304 C 137.247 183.697,136.591 183.200,136.440 183.200 C 136.020 183.200,133.338 179.558,132.758 178.200 C 132.476 177.540,132.006 176.711,131.712 176.357 C 129.983 174.271,130.197 165.203,132.063 161.522 C 133.273 159.134,137.019 154.511,137.994 154.202 C 138.437 154.061,138.800 153.796,138.800 153.613 C 138.800 151.344,149.281 149.455,154.367 150.808 M227.192 165.891 C 225.872 166.815,224.428 168.482,224.413 169.100 C 224.406 169.375,224.163 169.600,223.874 169.600 C 223.189 169.600,219.600 173.189,219.600 173.874 C 219.600 174.163,219.366 174.400,219.079 174.400 C 218.404 174.400,215.292 177.479,214.984 178.452 C 214.853 178.863,214.481 179.200,214.157 179.200 C 213.464 179.200,210.412 182.372,210.405 183.100 C 210.402 183.375,210.072 183.600,209.672 183.600 C 208.862 183.600,205.600 187.014,205.600 187.861 C 205.600 188.157,205.272 188.400,204.872 188.400 C 204.062 188.400,200.800 191.814,200.800 192.661 C 200.800 192.957,200.479 193.200,200.087 193.200 C 199.695 193.200,198.660 194.031,197.787 195.046 C 196.914 196.062,195.860 197.187,195.444 197.546 C 192.475 200.115,191.600 201.056,191.600 201.684 C 191.600 202.106,191.305 202.400,190.883 202.400 C 190.003 202.400,186.800 205.589,186.800 206.465 C 186.800 206.839,186.343 207.191,185.688 207.322 C 184.644 207.531,182.000 210.538,182.000 211.515 C 182.000 211.727,181.443 212.011,180.763 212.147 C 180.063 212.287,179.447 212.700,179.343 213.097 C 179.090 214.063,177.200 214.969,177.200 214.125 C 177.200 213.795,176.840 213.431,176.400 213.316 C 175.960 213.201,175.600 212.858,175.600 212.553 C 175.600 212.249,175.342 212.000,175.027 212.000 C 174.712 212.000,174.340 211.640,174.200 211.200 C 174.060 210.760,173.700 210.400,173.400 210.400 C 173.100 210.400,172.740 210.040,172.600 209.600 C 172.460 209.160,172.088 208.800,171.773 208.800 C 171.458 208.800,171.200 208.513,171.200 208.163 C 171.200 207.812,170.840 207.431,170.400 207.316 C 169.960 207.201,169.600 206.841,169.600 206.516 C 169.600 206.191,169.240 205.831,168.800 205.716 C 168.360 205.601,168.000 205.241,168.000 204.916 C 168.000 204.591,167.640 204.231,167.200 204.116 C 166.760 204.001,166.400 203.641,166.400 203.316 C 166.400 202.991,166.057 202.635,165.637 202.526 C 165.217 202.416,164.784 201.983,164.674 201.563 C 164.558 201.119,164.125 200.800,163.637 200.800 C 163.177 200.800,162.800 200.639,162.800 200.443 C 162.800 199.674,161.548 199.652,160.900 200.408 C 160.527 200.844,159.992 201.200,159.711 201.200 C 159.430 201.200,159.200 201.380,159.200 201.599 C 159.200 202.091,148.849 212.400,148.355 212.400 C 148.160 212.400,148.000 212.566,148.000 212.768 C 148.000 213.256,144.445 216.800,143.956 216.800 C 143.746 216.800,143.461 217.097,143.322 217.459 C 143.082 218.083,142.381 218.826,139.742 221.248 C 139.114 221.824,138.152 222.859,137.604 223.548 C 137.057 224.237,136.382 224.800,136.104 224.800 C 135.827 224.800,135.600 225.070,135.600 225.400 C 135.600 225.730,135.324 226.000,134.987 226.000 C 134.651 226.000,134.264 226.288,134.129 226.640 C 133.872 227.311,132.117 229.200,131.751 229.200 C 131.634 229.200,131.012 229.726,130.369 230.369 L 129.200 231.538 129.206 241.269 C 129.210 246.701,129.380 251.265,129.592 251.600 C 130.129 252.451,269.003 252.725,270.162 251.877 C 271.391 250.979,271.284 206.710,270.050 205.560 C 269.582 205.125,269.200 204.596,269.200 204.384 C 269.200 204.173,269.028 204.000,268.817 204.000 C 268.606 204.000,267.467 203.010,266.286 201.800 C 265.105 200.590,263.948 199.600,263.716 199.600 C 263.483 199.600,263.199 199.240,263.084 198.800 C 262.969 198.360,262.588 198.000,262.237 198.000 C 261.867 198.000,261.600 197.665,261.600 197.200 C 261.600 196.683,261.333 196.400,260.847 196.400 C 260.430 196.400,260.000 196.043,259.884 195.600 C 259.769 195.160,259.388 194.800,259.037 194.800 C 258.667 194.800,258.400 194.465,258.400 194.000 C 258.400 193.467,258.133 193.200,257.600 193.200 C 257.067 193.200,256.800 192.933,256.800 192.400 C 256.800 191.867,256.533 191.600,256.000 191.600 C 255.548 191.600,255.200 191.333,255.200 190.987 C 255.200 190.651,254.937 190.274,254.615 190.150 C 254.294 190.027,253.921 189.583,253.788 189.163 C 253.655 188.743,253.375 188.400,253.166 188.400 C 252.958 188.400,251.471 187.050,249.864 185.400 C 248.256 183.750,246.729 182.400,246.470 182.400 C 246.212 182.400,246.000 182.040,246.000 181.600 C 246.000 181.067,245.733 180.800,245.200 180.800 C 244.667 180.800,244.400 180.533,244.400 180.000 C 244.400 179.483,244.133 179.200,243.647 179.200 C 243.230 179.200,242.800 178.843,242.684 178.400 C 242.569 177.960,242.188 177.600,241.837 177.600 C 241.467 177.600,241.200 177.265,241.200 176.800 C 241.200 176.283,240.933 176.000,240.447 176.000 C 240.030 176.000,239.600 175.643,239.484 175.200 C 239.369 174.760,238.988 174.400,238.637 174.400 C 238.287 174.400,238.000 174.194,238.000 173.941 C 238.000 173.393,231.364 166.800,230.812 166.800 C 230.601 166.800,230.235 166.440,230.000 166.000 C 229.474 165.017,228.493 164.979,227.192 165.891 M249.313 186.500 C 260.205 197.335,269.315 206.593,269.558 207.074 C 269.864 207.678,270.000 214.414,270.000 228.945 L 270.000 249.942 268.946 250.771 L 267.892 251.600 200.177 251.600 L 132.461 251.600 131.231 250.564 L 130.000 249.529 130.000 241.624 C 130.000 234.165,130.348 231.200,131.223 231.200 C 131.412 231.200,132.430 230.280,133.484 229.156 C 134.538 228.032,135.626 226.907,135.902 226.656 C 136.178 226.405,142.070 220.555,148.995 213.655 C 159.729 202.959,161.719 201.144,162.493 201.343 C 162.992 201.471,166.550 204.728,170.400 208.581 C 174.250 212.434,177.649 215.589,177.953 215.593 C 178.525 215.600,180.808 213.617,182.965 211.239 C 183.644 210.490,184.703 209.418,185.318 208.857 C 185.933 208.295,195.653 198.619,206.918 187.354 C 223.224 171.048,227.615 166.865,228.455 166.836 C 229.332 166.806,232.860 170.132,249.313 186.500 " stroke="none" fill="#e4e4e4" fill-rule="evenodd"></path></g></svg>
